<!-- Generator: Adobe Illustrator 24.2.3, SVG Export Plug-In  -->
<svg version="1.1" xmlns="http://www.w3.org/2000/svg" xmlns:xlink="http://www.w3.org/1999/xlink" x="0px" y="0px" width="129.9px"
	 height="129.9px" viewBox="0 0 129.9 129.9" style="overflow:visible;enable-background:new 0 0 129.9 129.9;"
	 xml:space="preserve">
<style type="text/css">
	.st0{fill:none;stroke:#FFFFFF;stroke-width:20;stroke-miterlimit:10;}
	.st1{fill:#FFFFFF;}
</style>
<defs>
</defs>
<line id="XMLID_3_" class="st0" x1="64.9" y1="53" x2="64.9" y2="108"/>
<g id="XMLID_2_">
	<circle cx="64.6" cy="36.2" r="0.8"/>
	<g>
		<path class="st1" d="M59.4,36.2C59.4,36.2,59.4,36.3,59.4,36.2c0.1-0.4,0.1-1,0.2-1.5c0,0.1,0,0.2-0.1,0.2c0.2-0.5,0.4-1,0.6-1.4
			c0,0,0,0.1-0.1,0.1c0.3-0.4,0.6-0.8,0.9-1.2c-0.1,0.1-0.1,0.1-0.2,0.2c0.4-0.3,0.8-0.6,1.2-0.9c0,0-0.1,0.1-0.1,0.1
			c0.5-0.2,1-0.4,1.4-0.6c-0.1,0-0.1,0-0.2,0.1c0.5-0.1,1.1-0.1,1.6-0.2c-0.1,0-0.1,0-0.2,0c0.5,0.1,1.1,0.1,1.6,0.2
			c-0.1,0-0.2,0-0.2-0.1c0.5,0.2,1,0.4,1.4,0.6c0,0-0.1,0-0.1-0.1c0.4,0.3,0.8,0.6,1.2,0.9c-0.1-0.1-0.1-0.1-0.2-0.2
			c0.3,0.4,0.6,0.8,0.9,1.2c0,0-0.1-0.1-0.1-0.1c0.2,0.5,0.4,1,0.6,1.4c0-0.1,0-0.1-0.1-0.2c0.1,0.5,0.1,1.1,0.2,1.6
			c0-0.1,0-0.1,0-0.2c-0.1,0.5-0.1,1.1-0.2,1.6c0-0.1,0-0.2,0.1-0.2c-0.2,0.5-0.4,1-0.6,1.4c0,0,0-0.1,0.1-0.1
			c-0.3,0.4-0.6,0.8-0.9,1.2c0.1-0.1,0.1-0.1,0.2-0.2c-0.4,0.3-0.8,0.6-1.2,0.9c0,0,0.1-0.1,0.1-0.1c-0.5,0.2-1,0.4-1.4,0.6
			c0.1,0,0.1,0,0.2-0.1c-0.5,0.1-1.1,0.1-1.6,0.2c0.1,0,0.1,0,0.2,0c-0.5-0.1-1.1-0.1-1.6-0.2c0.1,0,0.2,0,0.2,0.1
			c-0.5-0.2-1-0.4-1.4-0.6c0,0,0.1,0,0.1,0.1c-0.4-0.3-0.8-0.6-1.2-0.9c0.1,0.1,0.1,0.1,0.2,0.2c-0.3-0.4-0.6-0.8-0.9-1.2
			c0,0,0.1,0.1,0.1,0.1c-0.2-0.5-0.4-1-0.6-1.4c0,0.1,0,0.1,0.1,0.2C59.5,37.2,59.4,36.7,59.4,36.2C59.4,36.2,59.4,36.2,59.4,36.2
			c0,0.8,0.1,1.6,0.5,2.3c0.2,0.7,0.7,1.4,1.2,1.9c0.5,0.6,1.2,1,1.9,1.2c0.7,0.4,1.5,0.5,2.3,0.5c0.5-0.1,1.1-0.1,1.6-0.2
			c1-0.3,1.9-0.8,2.6-1.5c1-1.1,1.8-2.7,1.8-4.2c0-0.3-0.1-0.6-0.1-0.9c0-0.3-0.1-0.6-0.1-0.9c-0.1-0.3-0.2-0.6-0.4-0.9
			c-0.2-0.4-0.2-0.6-0.4-0.8c-0.3-0.4-0.6-0.8-0.9-1.2c0,0,0-0.1-0.1-0.1c0,0-0.1-0.1-0.1-0.1c-0.4-0.3-0.8-0.6-1.2-0.9
			c-0.5-0.3-0.9-0.5-1.6-0.7c-0.6-0.2-1.3-0.3-1.9-0.3c-0.6,0-1.3,0.1-1.9,0.3c-0.7,0.2-1.1,0.4-1.6,0.7c-0.4,0.3-0.8,0.6-1.2,0.9
			c0,0-0.1,0-0.1,0.1c0,0-0.1,0.1-0.1,0.1c-0.3,0.4-0.6,0.8-0.9,1.2c-0.2,0.3-0.2,0.5-0.4,0.8c-0.1,0.3-0.3,0.6-0.4,0.9
			c0,0.3-0.1,0.6-0.1,0.9c-0.1,0.3-0.1,0.6-0.1,0.9c-0.1,1.7,0.7,3.6,2,4.7c0.8,0.7,1.3,1,2.2,1.4c0.3,0.1,0.6,0.3,0.9,0.4
			c0.3,0,0.6,0.1,0.9,0.1c0.3,0.1,0.6,0.1,0.8,0.1c0,0,0.1,0,0.1,0c0.5-0.1,1.1-0.1,1.6-0.2c0.1,0,0.1,0,0.2-0.1
			c0.5-0.2,1.1-0.4,1.5-0.7c0.5-0.3,0.9-0.6,1.3-1c0.4-0.4,0.8-0.9,1.1-1.5c0.6-1.1,0.8-2.1,0.9-3.3c0-0.8-0.1-1.6-0.5-2.3
			c-0.2-0.7-0.7-1.4-1.2-1.9c-0.5-0.6-1.2-1-1.9-1.2c-0.7-0.4-1.5-0.5-2.3-0.5c-0.5,0.1-1.1,0.1-1.6,0.2c-1,0.3-1.9,0.8-2.6,1.5
			c-0.3,0.4-0.6,0.8-0.9,1.2C59.6,34.1,59.4,35.1,59.4,36.2z"/>
	</g>
</g>
<g id="XMLID_1_">
	<g>
		<path class="st1" d="M129.9,65c-0.3-27.1-17.1-51.4-42.5-61C62.1-5.6,32.2,2.5,15,23.3c-17.3,21-20,51.3-6,74.8
			c13.9,23.4,41.5,35.6,68.2,30.6C107.6,123.2,129.5,95.6,129.9,65c0.1-6.4-9.9-6.4-10,0c-0.3,22.7-14.3,43.6-35.7,51.5
			c-21.9,8-46.7,1.4-61.7-16.5C7.7,82.4,5.9,56.5,17.6,36.8C29.3,17.3,52.7,6.5,75.1,10.9C101,16,119.6,38.7,119.9,65
			C119.9,71.4,129.9,71.4,129.9,65z"/>
	</g>
</g>
</svg>
