<!-- Generator: Adobe Illustrator 24.2.3, SVG Export Plug-In  -->
<svg version="1.1" xmlns="http://www.w3.org/2000/svg" xmlns:xlink="http://www.w3.org/1999/xlink" x="0px" y="0px" width="111px"
	 height="123.3px" viewBox="0 0 111 123.3" style="overflow:visible;enable-background:new 0 0 111 123.3;" xml:space="preserve">
<style type="text/css">
	.st0{fill:#FFFFFF;}
</style>
<defs>
</defs>
<g id="XMLID_1_">
	<g id="XMLID_3_">
		<g>
			<path class="st0" d="M35.7,29.9c0.3-10.9,8.9-20,20-20c10.9,0,20,9.1,20,20c0,10.9-9.1,20-20,20C44.6,49.9,36,40.8,35.7,29.9
				c-0.2-6.4-10.2-6.4-10,0C26,42.4,33.4,53.6,45.3,58c11.7,4.4,25.4,0.8,33.4-8.8c8-9.6,9.3-23.6,3-34.5
				C75.3,3.9,62.6-1.7,50.3,0.4C36,2.9,26.1,15.7,25.7,29.9C25.5,36.4,35.5,36.4,35.7,29.9z"/>
		</g>
	</g>
	<g id="XMLID_2_">
		<g>
			<path class="st0" d="M10.3,118.2c0-3.7,0-7.5,0-11.2c0-3.4-0.4-6.9,0.8-10.1c1.9-4.9,6.5-8.5,11.3-10.4c6.1-2.4,12.5-2,18.9-2
				c8,0,15.9,0,23.9,0c5.3,0,10.9-0.4,16.2,0.3c6.5,0.8,13.3,3.9,16.9,9.5c1.9,3,2.2,6,2.3,9.5c0.1,4.9,0.2,9.8,0.3,14.7
				c0.1,6.4,10.1,6.4,10,0c-0.1-7.9,1-17.2-1.8-24.8c-2.3-6.2-7.2-11.2-12.9-14.4c-8.2-4.5-16.9-4.7-25.9-4.7c-9.3,0-18.5,0-27.8,0
				c-8.2,0-16.2-0.3-23.9,2.9c-6.7,2.7-12.7,7.5-15.9,14c-3.9,8.1-2.4,18.1-2.3,26.8C0.3,124.6,10.3,124.6,10.3,118.2L10.3,118.2z"
				/>
		</g>
	</g>
</g>
</svg>
