<svg id="Calque_10" class="svg-icon" data-name="Calque 10" xmlns="http://www.w3.org/2000/svg" viewBox="0 0 110.97 123.26"><circle cx="55.71" cy="29.93" r="25" style="fill:#fff"/><path d="M162.5,379.5c.29-10.91,8.87-20,20-20a20,20,0,0,1,0,40c-11.13,0-19.71-9.09-20-20-.17-6.42-10.17-6.45-10,0,.34,12.48,7.72,23.65,19.54,28.1A30,30,0,1,0,177.12,350c-14.35,2.46-24.24,15.27-24.62,29.49C152.33,385.94,162.33,385.93,162.5,379.5Z" transform="translate(-126.79 -349.57)" style="fill:#fff"/><path d="M132.11,467.74q0-8.42,0-16.84c0-12.1,12.58-21.92,28.12-21.9h.28l43.76.06c15.21,0,27.66,9.49,28,21.35q.25,8.79.37,17.59" transform="translate(-126.79 -349.57)" style="fill:#fff"/><path d="M137.11,467.74q0-5.61,0-11.22c0-3.37-.41-6.91.82-10.12,1.89-4.94,6.52-8.46,11.31-10.37,6.07-2.42,12.48-2,18.86-2l23.92,0c5.31,0,10.89-.43,16.18.26,6.46.84,13.25,3.88,16.9,9.5,1.93,3,2.16,6,2.25,9.53q.19,7.34.29,14.66c.09,6.43,10.1,6.45,10,0-.11-7.92,1-17.25-1.76-24.8A28,28,0,0,0,223,428.79c-8.18-4.53-16.92-4.72-25.95-4.74l-27.75,0c-8.15,0-16.19-.31-23.92,2.85-6.68,2.74-12.72,7.46-15.9,14.05-3.91,8.09-2.37,18.14-2.34,26.83,0,6.44,10,6.45,10,0Z" transform="translate(-126.79 -349.57)" style="fill:#fff"/></svg>