<!-- Generator: Adobe Illustrator 24.2.3, SVG Export Plug-In  -->
<svg version="1.1" xmlns="http://www.w3.org/2000/svg" xmlns:xlink="http://www.w3.org/1999/xlink" x="0px" y="0px" width="98.7px"
	 height="126.3px" viewBox="0 0 98.7 126.3" style="overflow:visible;enable-background:new 0 0 98.7 126.3;" xml:space="preserve">
<style type="text/css">
	.st0{fill:#FFFFFF;stroke:#FFFFFF;stroke-miterlimit:10;}
	.st1{fill:#FFFFFF;}
</style>
<defs>
</defs>
<g id="XMLID_1_">
	<path id="XMLID_3_" class="st0" d="M86,34.1H12.8C6,34.1,0.5,39.3,0.5,45.6v68.6c0,6.3,5.5,11.5,12.3,11.5H86
		c6.8,0,12.3-5.2,12.3-11.5V45.6C98.2,39.3,92.7,34.1,86,34.1z M49.4,98.3c-7,0-12.7-5.3-12.7-11.9c0-6.6,5.7-11.9,12.7-11.9
		s12.7,5.3,12.7,11.9C62.1,93,56.4,98.3,49.4,98.3z"/>
	<g id="XMLID_2_">
		<g>
			<path class="st1" d="M72.7,31.4C72.4,43.9,61.6,52.9,49.4,53C37.4,53,26,43.8,26,31.4C26,18.9,37.4,9.8,49.4,9.8
				C61.6,9.8,72.4,18.9,72.7,31.4c0.2,6.4,10.2,6.4,10,0c-0.8-29.7-40-42.3-59.1-20c-8.6,10-10.1,24.7-3,36
				c7.4,11.8,21.5,17.3,35,15.1c15.3-2.6,26.7-15.6,27.1-31C82.9,24.9,72.9,24.9,72.7,31.4z"/>
		</g>
	</g>
</g>
</svg>
