<!-- Generator: Adobe Illustrator 24.2.3, SVG Export Plug-In  -->
<svg version="1.1" xmlns="http://www.w3.org/2000/svg" xmlns:xlink="http://www.w3.org/1999/xlink" x="0px" y="0px" width="120.7px"
	 height="110.7px" viewBox="0 0 120.7 110.7" style="overflow:visible;enable-background:new 0 0 120.7 110.7;"
	 xml:space="preserve">
<style type="text/css">
	.st0{fill:#FFFFFF;}
</style>
<defs>
</defs>
<g id="XMLID_7_">
	<g>
		<path class="st0" d="M65.9,10.3c15.7,0,31.4,0,47.1,0c6.4,0,6.4-10,0-10c-15.7,0-31.4,0-47.1,0C59.4,0.3,59.4,10.3,65.9,10.3
			c15.7,0,31.4,0,47.1,0c6.4,0,6.4-10,0-10c-15.7,0-31.4,0-47.1,0C59.4,0.3,59.4,10.3,65.9,10.3z"/>
	</g>
</g>
<g id="XMLID_6_">
	<g>
		<path class="st0" d="M115.9,100.3c-16.7,0-33.3,0-50,0c-6.4,0-6.4,10,0,10c16.7,0,33.3,0,50,0
			C122.3,110.3,122.3,100.3,115.9,100.3c-16.7,0-33.3,0-50,0c-6.4,0-6.4,10,0,10c16.7,0,33.3,0,50,0
			C122.3,110.3,122.3,100.3,115.9,100.3z"/>
	</g>
</g>
<g id="XMLID_5_">
	<g>
		<path class="st0" d="M120.4,105.8c0-29.5,0-59,0-88.4c0-4.2,0-8.4,0-12.6c0-6.4-10-6.4-10,0c0,29.5,0,59,0,88.4
			c0,4.2,0,8.4,0,12.6C110.4,112.3,120.4,112.3,120.4,105.8c0-29.5,0-59,0-88.4c0-4.2,0-8.4,0-12.6c0-6.4-10-6.4-10,0
			c0,29.5,0,59,0,88.4c0,4.2,0,8.4,0,12.6C110.4,112.3,120.4,112.3,120.4,105.8z"/>
	</g>
</g>
<g id="XMLID_1_">
	<g id="XMLID_4_">
		<g>
			<path class="st0" d="M4.8,61.5c18.8-0.2,37.7-0.3,56.5-0.5c6.4-0.1,6.4-10.1,0-10c-18.8,0.2-37.7,0.3-56.5,0.5
				C-1.6,51.6-1.6,61.6,4.8,61.5L4.8,61.5z"/>
		</g>
	</g>
	<g id="XMLID_3_">
		<g>
			<path class="st0" d="M74.9,52.5C63,40.7,51.2,28.8,39.4,17c-4.6-4.6-11.6,2.5-7.1,7.1C44.1,35.9,56,47.7,67.8,59.6
				C72.4,64.1,79.4,57,74.9,52.5L74.9,52.5z"/>
		</g>
	</g>
	<g id="XMLID_2_">
		<g>
			<path class="st0" d="M68.8,53C57,64.8,45.1,76.7,33.3,88.5c-4.6,4.6,2.5,11.6,7.1,7.1C52.2,83.7,64,71.9,75.9,60.1
				C80.4,55.5,73.4,48.4,68.8,53L68.8,53z"/>
		</g>
	</g>
</g>
</svg>
