<!-- Generator: Adobe Illustrator 24.2.3, SVG Export Plug-In  -->
<svg version="1.1" xmlns="http://www.w3.org/2000/svg" xmlns:xlink="http://www.w3.org/1999/xlink" x="0px" y="0px" width="119.8px"
	 height="110.7px" viewBox="0 0 119.8 110.7" style="overflow:visible;enable-background:new 0 0 119.8 110.7;"
	 xml:space="preserve">
<style type="text/css">
	.st0{fill:#FFFFFF;}
</style>
<defs>
</defs>
<g id="XMLID_5_">
	<g id="XMLID_8_">
		<g>
			<path class="st0" d="M47.3,60.8c18.8-0.2,37.7-0.3,56.5-0.5c6.4-0.1,6.4-10.1,0-10c-18.8,0.2-37.7,0.3-56.5,0.5
				C40.9,50.9,40.9,60.9,47.3,60.8L47.3,60.8z"/>
		</g>
	</g>
	<g id="XMLID_7_">
		<g>
			<path class="st0" d="M117.4,51.8C105.5,40,93.7,28.1,81.9,16.3c-4.6-4.6-11.6,2.5-7.1,7.1C86.6,35.2,98.5,47,110.3,58.9
				C114.9,63.4,121.9,56.4,117.4,51.8L117.4,51.8z"/>
		</g>
	</g>
	<g id="XMLID_6_">
		<g>
			<path class="st0" d="M111.3,52.3C99.5,64.1,87.6,76,75.8,87.8c-4.6,4.6,2.5,11.6,7.1,7.1c11.8-11.8,23.7-23.7,35.5-35.5
				C122.9,54.8,115.9,47.7,111.3,52.3L111.3,52.3z"/>
		</g>
	</g>
</g>
<g id="XMLID_1_">
	<g id="XMLID_4_">
		<g>
			<path class="st0" d="M54.8,0.3c-16.7,0-33.3,0-50,0c-6.4,0-6.4,10,0,10c16.7,0,33.3,0,50,0C61.3,10.3,61.3,0.3,54.8,0.3
				c-16.7,0-33.3,0-50,0c-6.4,0-6.4,10,0,10c16.7,0,33.3,0,50,0C61.3,10.3,61.3,0.3,54.8,0.3z"/>
		</g>
	</g>
	<g id="XMLID_3_">
		<g>
			<path class="st0" d="M54.8,100.3c-16.7,0-33.3,0-50,0c-6.4,0-6.4,10,0,10c16.7,0,33.3,0,50,0C61.3,110.3,61.3,100.3,54.8,100.3
				c-16.7,0-33.3,0-50,0c-6.4,0-6.4,10,0,10c16.7,0,33.3,0,50,0C61.3,110.3,61.3,100.3,54.8,100.3z"/>
		</g>
	</g>
	<g id="XMLID_2_">
		<g>
			<path class="st0" d="M10.3,105.8c0-29.5,0-59,0-88.4c0-4.2,0-8.4,0-12.6c0-6.4-10-6.4-10,0c0,29.5,0,59,0,88.4
				c0,4.2,0,8.4,0,12.6C0.3,112.3,10.3,112.3,10.3,105.8c0-29.5,0-59,0-88.4c0-4.2,0-8.4,0-12.6c0-6.4-10-6.4-10,0
				c0,29.5,0,59,0,88.4c0,4.2,0,8.4,0,12.6C0.3,112.3,10.3,112.3,10.3,105.8z"/>
		</g>
	</g>
</g>
</svg>
