<!-- Generator: Adobe Illustrator 24.2.3, SVG Export Plug-In  -->
<svg version="1.1" xmlns="http://www.w3.org/2000/svg" xmlns:xlink="http://www.w3.org/1999/xlink" x="0px" y="0px" width="118px"
	 height="118px" viewBox="0 0 118 118" style="overflow:visible;enable-background:new 0 0 118 118;" xml:space="preserve">
<defs>
</defs>
<g id="XMLID_1_">
	<path id="XMLID_4_" d="M117.2,69c0.6-3.3,0.8-6.6,0.8-10c0-3.4-0.3-6.8-0.8-10H107c-1.3-6.1-3.7-11.8-7-16.9l7.2-7.2
		c-3.9-5.5-8.7-10.3-14.1-14.1L85.8,18c-5-3.3-10.7-5.7-16.8-7V0.8C65.8,0.3,62.4,0,59,0s-6.8,0.3-10,0.8V11
		c-6.1,1.3-11.8,3.7-16.8,7L25,10.8c-5.5,3.9-10.3,8.7-14.1,14.1l7.2,7.2c-3.3,5-5.7,10.7-7,16.9H0.8C0.3,52.3,0,55.6,0,59
		c0,3.4,0.3,6.8,0.8,10H11c1.3,6.1,3.7,11.8,7,16.8L10.8,93c3.9,5.5,8.7,10.3,14.1,14.1l7.2-7.2c5,3.3,10.7,5.7,16.8,7v10.2
		c3.3,0.6,6.6,0.9,10,0.9s6.8-0.3,10-0.9V107c6.1-1.3,11.8-3.7,16.8-7l7.2,7.2c5.5-3.9,10.3-8.7,14.1-14.1l-7.2-7.2
		c3.3-5,5.7-10.7,7-16.8H117.2z M83.1,69h-1.2c-2.5,5.8-7.1,10.4-12.9,12.9v1.2l-0.9-0.9C65.3,83.4,62.2,84,59,84s-6.3-0.6-9.1-1.7
		L49,83.1v-1.2c-5.8-2.5-10.4-7.2-12.9-12.9h-1.2l0.9-0.9C34.6,65.3,34,62.2,34,59c0-3.2,0.6-6.3,1.7-9.1L34.9,49h1.2
		c2.5-5.8,7.1-10.4,12.9-12.9v-1.2l0.9,0.9c2.8-1.1,5.9-1.7,9.1-1.7s6.3,0.6,9.1,1.7l0.9-0.9v1.2c5.8,2.5,10.4,7.2,12.9,12.9h1.2
		l-0.9,0.9c1.1,2.8,1.7,5.9,1.7,9.1c0,3.2-0.6,6.3-1.7,9.1L83.1,69z"/>
	<path id="XMLID_3_" d="M49.9,35.7c-0.3,0.1-0.6,0.2-0.9,0.3v-1.2L49.9,35.7z"/>
	<path id="XMLID_2_" d="M69,81.9v1.2l-0.9-0.9C68.4,82.2,68.7,82,69,81.9z"/>
</g>
</svg>
