<!-- Generator: Adobe Illustrator 24.2.3, SVG Export Plug-In  -->
<svg version="1.1" xmlns="http://www.w3.org/2000/svg" xmlns:xlink="http://www.w3.org/1999/xlink" x="0px" y="0px" width="100px"
	 height="103px" viewBox="0 0 100 103" style="overflow:visible;enable-background:new 0 0 100 103;" xml:space="preserve">
<defs>
</defs>
<circle id="XMLID_2_" cx="50" cy="24" r="24"/>
<path id="XMLID_1_" d="M100,83.6v13.9c0,3.1-2.5,5.6-5.6,5.6H5.6c-3.1,0-5.6-2.5-5.6-5.6V78c0-6.9,2.8-13.1,7.3-17.7
	C11.9,55.8,18.1,53,25,53h5.9c1.3,0,2.6,0.5,3.6,1.4C38.7,57.9,44.1,60,50,60s11.3-2.1,15.5-5.6c1-0.9,2.3-1.4,3.6-1.4h0.4
	C86.3,53,100,66.8,100,83.6z"/>
</svg>
