<!-- Generator: Adobe Illustrator 24.2.3, SVG Export Plug-In  -->
<svg version="1.1" xmlns="http://www.w3.org/2000/svg" xmlns:xlink="http://www.w3.org/1999/xlink" x="0px" y="0px" width="108.3px"
	 height="121.9px" viewBox="0 0 108.3 121.9" style="overflow:visible;enable-background:new 0 0 108.3 121.9;"
	 xml:space="preserve">
<defs>
</defs>
<g id="XMLID_1_">
	<g id="XMLID_5_">
		<g id="XMLID_7_">
			<g>
				<path d="M20.6,23.8c21.5,0,42.9,0,64.4,0c5.4,0,10.7,1.4,12.6,7.3c1,3.1,0.5,6.9,0.5,10c0,13.3,0,26.5,0,39.8
					c0,5.5,0,10.9,0,16.4c0,4.8,0,9.5-4.5,12.6c-3.3,2.3-7.3,1.9-11.1,1.9c-5.7,0-11.5,0-17.2,0c-13.1,0-26.3,0-39.4,0
					c-3.9,0-8,0.5-11.3-1.9c-4.3-3-4.5-7.5-4.5-12.1c0-14.4,0-28.7,0-43.1C10.1,45.2,6.2,24.4,20.6,23.8c6.4-0.3,6.4-10.3,0-10
					c-11.4,0.5-20,9-20.5,20.5c-0.1,3.4,0,6.9,0,10.3c0,15,0,29.9,0,44.9c0,3.9-0.1,7.8,0,11.6c0.3,9.7,6.7,18.3,16.5,20.3
					c3.7,0.7,7.7,0.4,11.4,0.4c7.2,0,14.4,0,21.5,0c12.4,0,24.9,0.2,37.3,0c8.6-0.1,16.4-4.7,19.7-12.9c1.7-4.3,1.5-8.7,1.5-13.3
					c0-14.6,0-29.1,0-43.7c0-11.7,2.4-26.2-8.4-34.2c-5.4-4-11.4-4-17.7-4c-7.5,0-14.9,0-22.4,0c-13,0-26,0-39,0
					C14.1,13.8,14.1,23.8,20.6,23.8z"/>
			</g>
		</g>
	</g>
	<g id="XMLID_4_">
		<g>
			<path d="M8.1,48.3c27.5,0,55.1,0,82.6,0c4,0,7.9,0,11.9,0c6.4,0,6.4-10,0-10c-27.5,0-55.1,0-82.6,0c-4,0-7.9,0-11.9,0
				C1.6,38.3,1.6,48.3,8.1,48.3L8.1,48.3z"/>
		</g>
	</g>
	<g id="XMLID_3_">
		<g>
			<path d="M39.6,25.8c0-7,0-14,0-21c0-6.4-10-6.4-10,0c0,7,0,14,0,21C29.6,32.3,39.6,32.3,39.6,25.8L39.6,25.8z"/>
		</g>
	</g>
	<g id="XMLID_2_">
		<g>
			<path d="M79.6,25.8c0-7,0-14,0-21c0-6.4-10-6.4-10,0c0,7,0,14,0,21C69.6,32.3,79.6,32.3,79.6,25.8L79.6,25.8z"/>
		</g>
	</g>
</g>
</svg>
