<!-- Generator: Adobe Illustrator 24.2.3, SVG Export Plug-In  -->
<svg class="myhome-icon" version="1.1" xmlns="http://www.w3.org/2000/svg" xmlns:xlink="http://www.w3.org/1999/xlink" x="0px" y="0px" width="102.4px"
	 height="120.3px" viewBox="0 0 102.4 120.3" style="overflow:visible;enable-background:new 0 0 102.4 120.3;"
	 xml:space="preserve">
	<style type="text/css">
		.st0{fill:#FFFFFF;}
	</style>
	<defs>
	</defs>
	<g id="XMLID_1_">
		<g id="XMLID_4_">
			<g>
				<path class="st0" d="M92.3,50.7c0,10.6,0,21.2,0,31.8c0,6.7,0,13.3,0,20c0,2.2,1.1,6.7-1.4,7.5c-2.7,0.9-7.4,0-10.1,0
					c-6.6,0-13.1,0-19.7,0c-13.8,0-27.6,0-41.4,0c-2.1,0-6.2,0.8-8.3,0c-2.5-1-1.2-7.3-1.2-9.6c0-13.8,0-27.6,0-41.5
					c0-2.4-0.8-6.4,0.2-8.6c0.4-1,1.9-2,2.7-2.8c2-2,3.9-4.1,5.9-6.1c9.4-9.7,18.8-19.4,28.3-29.2c0.9-0.9,1.8-2.2,2.8-2.9
					c-1.9,1.3-0.5,0.4,0.6,0.5c1.2,0.1,3.7,0.9,1.7-0.5c0.3,0.2,0.5,0.5,0.7,0.8c3.4,4.6,8.3,8.6,12.3,12.7
					c5.9,6.1,11.8,12.2,17.7,18.3c2.1,2.2,4.2,4.4,6.4,6.6C90.2,48.4,92.2,49.8,92.3,50.7c0.8,6.3,10.9,6.4,10,0
					c-0.8-5.7-4.4-8.7-8.2-12.6C88.7,32.6,83.4,27,78,21.5C72.9,16.2,67.8,11,62.7,5.7c-4-4.1-7.3-6.2-13.5-5.6
					C44,0.6,41.5,4,38.1,7.5c-5.3,5.5-10.6,11-16,16.5C17,29.3,11.9,34.6,6.7,39.9C3.5,43.3,0.6,46,0.3,51.1c-0.7,13,0,26.2,0,39.2
					c0,5.9-0.1,11.8,0,17.7c0.1,7,4.3,11.8,11.5,12.1c11.6,0.5,23.4,0,35,0c13.9,0,27.8,0,41.7,0c6.6,0,12.9-2.5,13.7-10
					c0.4-3.9,0.1-8,0.1-11.9c0-14.7,0-29.4,0-44c0-1.1,0-2.3,0-3.4C102.3,44.3,92.3,44.3,92.3,50.7z"/>
			</g>
		</g>
		<g id="XMLID_3_">
			<g>
				<path class="st0" d="M65.8,107.6c-9.7,0-19.3,0-29,0c1.7,1.7,3.3,3.3,5,5c0-14.3,0-28.7,0-43c-1.7,1.7-3.3,3.3-5,5
					c9.7,0,19.3,0,29,0c-1.7-1.7-3.3-3.3-5-5c0,14.3,0,28.7,0,43c0,6.4,10,6.4,10,0c0-14.3,0-28.7,0-43c0-2.7-2.3-5-5-5
					c-9.7,0-19.3,0-29,0c-2.7,0-5,2.3-5,5c0,14.3,0,28.7,0,43c0,2.7,2.3,5,5,5c9.7,0,19.3,0,29,0C72.2,117.6,72.3,107.6,65.8,107.6z"
					/>
			</g>
		</g>
	</g>
</svg>
