<!-- Generator: Adobe Illustrator 24.2.3, SVG Export Plug-In  -->
<svg class="myprofile-icon" version="1.1" xmlns="http://www.w3.org/2000/svg" xmlns:xlink="http://www.w3.org/1999/xlink" x="0px" y="0px" width="110.3px"
	 height="117px" viewBox="0 0 110.3 117" style="overflow:visible;enable-background:new 0 0 110.3 117;" xml:space="preserve">
<defs>
</defs>
<g id="XMLID_1_">
	<g id="XMLID_3_">
		<g>
			<path d="M85,30C84.7,17.5,77.3,6.3,65.5,1.9c-11.7-4.4-25.4-0.8-33.4,8.8c-8,9.6-9.3,23.6-3,34.5c6.4,10.8,19,16.5,31.3,14.4
				C74.7,57,84.6,44.2,85,30c0.2-6.4-9.8-6.4-10,0c-0.3,10.9-8.9,20-20,20c-10.9,0-20-9.1-20-20c0-10.9,9.1-20,20-20
				c11.1,0,19.7,9.1,20,20C75.2,36.4,85.2,36.4,85,30z"/>
		</g>
	</g>
	<g id="XMLID_2_">
		<g>
			<path d="M100,82.4c0,7.1,0,14.1,0,21.2c0,1.2,0.4,2.8-0.5,3.4c-0.8,0.5-3.6,0-4.5,0c-16.3,0-32.7,0-49,0c-8.2,0-16.4,0-24.6,0
				c-2.6,0-5.2,0-7.8,0c-0.5,0-3,0.4-3.4,0c-0.7-0.6-0.1-4-0.1-4.9c0-4.5,0-9.1,0-13.6c0-2.6-0.6-6,0.6-8.4c3.1-6.5,13.2-8,19.5-8.1
				c1.6,0,4-0.5,5.5,0c1.4,0.4,2.7,2,4,2.7c1.7,1,3.5,1.8,5.4,2.5c7.8,2.8,16.7,2.1,24-1.8c2.7-1.4,4.2-3.3,7.2-3.5
				c2.6-0.2,5.4-0.1,7.9,0.2C89.5,72.8,99.6,75.6,100,82.4c0.3,6.4,10.3,6.4,10,0c-0.8-15-18.1-20.3-30.7-20.4c-2,0-4.2-0.2-6.2,0.1
				c-4.2,0.6-6.8,3.9-10.7,5.4c-4.2,1.7-8.9,1.9-13.3,0.6c-4.1-1.2-6.9-4.8-10.9-5.8c-5.1-1.3-12-0.4-17,0.6
				C13.8,64.3,5.8,68.1,2,75c-2.2,3.8-2,8-2,12.2c0,5.1,0,10.2,0,15.3c0,4.4-0.2,8.7,3.5,11.9c2.4,2.1,5.3,2.5,8.3,2.6
				c6.9,0.1,13.8,0,20.7,0c19.8,0,39.5,0,59.3,0c7.4,0,17.2,0.7,18.1-9.4c0.7-8.3,0.1-16.8,0.1-25.1C110,75.9,100,75.9,100,82.4z"/>
		</g>
	</g>
</g>
</svg>
