<!-- Generator: Adobe Illustrator 24.2.3, SVG Export Plug-In  -->
<svg version="1.1" xmlns="http://www.w3.org/2000/svg" xmlns:xlink="http://www.w3.org/1999/xlink" x="0px" y="0px" width="130px"
	 height="127.2px" viewBox="0 0 130 127.2" style="overflow:visible;enable-background:new 0 0 130 127.2;" xml:space="preserve">
<style type="text/css">
	.st0{fill:#FFFFFF;}
	.st1{fill:none;stroke:#FFFFFF;stroke-width:10;stroke-miterlimit:10;}
</style>
<defs>
</defs>
<g id="XMLID_1_">
	<g id="XMLID_13_">
		<g>
			<path class="st0" d="M68.9,122.3c0-4.8,0-9.6,0-14.4c0-6.4-10-6.4-10,0c0,4.8,0,9.6,0,14.4C58.9,128.8,68.9,128.8,68.9,122.3
				L68.9,122.3z"/>
		</g>
	</g>
	<g id="XMLID_11_">
		<g>
			<path class="st0" d="M68.9,85.4c0-26.8,0-53.7,0-80.5c0-6.4-10-6.4-10,0c0,26.8,0,53.7,0,80.5C58.9,91.8,68.9,91.8,68.9,85.4
				L68.9,85.4z"/>
		</g>
	</g>
	<g id="XMLID_7_">
		<g id="XMLID_10_">
			<g>
				<path class="st0" d="M23,122.3c0-22.8,0-45.7,0-68.5c0-6.4-10-6.4-10,0c0,22.8,0,45.7,0,68.5C13,128.8,23,128.8,23,122.3
					L23,122.3z"/>
			</g>
		</g>
		<g id="XMLID_9_">
			<g>
				<path class="st0" d="M23,31.3c0-8.8,0-17.6,0-26.4c0-6.4-10-6.4-10,0c0,8.8,0,17.6,0,26.4C13,37.7,23,37.7,23,31.3L23,31.3z"/>
			</g>
		</g>
		<path id="XMLID_8_" class="st1" d="M28.1,50.5c-2.8,2.3-6.5,3.4-10.1,3.3c-3.3-0.1-6.6-1.2-9.1-3.3c-5.3-4.4-5.3-11.6,0-16
			c2.5-2.1,5.8-3.2,9.1-3.3c3.6-0.1,7.3,1,10.1,3.3C33.4,39,33.4,46.1,28.1,50.5z"/>
	</g>
	<path id="XMLID_6_" class="st1" d="M73.9,104.6c-2.8,2.3-6.5,3.4-10.1,3.3c-3.3-0.1-6.6-1.2-9.1-3.3c-5.3-4.4-5.3-11.6,0-16
		c2.5-2.1,5.8-3.2,9.1-3.3c3.6-0.1,7.3,1,10.1,3.3C79.2,93.1,79.2,100.2,73.9,104.6z"/>
	<g id="XMLID_2_">
		<g id="XMLID_5_">
			<g>
				<path class="st0" d="M116,122.3c0-27.1,0-54.1,0-81.2c0-6.4-10-6.4-10,0c0,27.1,0,54.1,0,81.2C106,128.8,116,128.8,116,122.3
					L116,122.3z"/>
			</g>
		</g>
		<g id="XMLID_4_">
			<g>
				<path class="st0" d="M116,18.6c0-4.6,0-9.2,0-13.7c0-6.4-10-6.4-10,0c0,4.6,0,9.2,0,13.7C106,25,116,25,116,18.6L116,18.6z"/>
			</g>
		</g>
		<path id="XMLID_3_" class="st1" d="M121,37.8c-2.8,2.3-6.5,3.4-10.1,3.3c-3.3-0.1-6.6-1.2-9.1-3.3c-5.3-4.4-5.3-11.6,0-16
			c2.5-2.1,5.8-3.2,9.1-3.3c3.6-0.1,7.3,1,10.1,3.3C126.3,26.3,126.3,33.4,121,37.8z"/>
	</g>
</g>
</svg>
