<svg id="Calque_7" class="svg-icon" data-name="Calque 7" xmlns="http://www.w3.org/2000/svg" viewBox="0 0 149.85 149.86"><defs><style>.cls-1{fill:none;stroke:#000;stroke-miterlimit:10;stroke-width:6px;}</style></defs><path d="M257,165a76,76,0,0,0-49.18-70.41c-29.31-11-63.86-1.56-83.63,22.66-19.89,24.38-22.82,59.49-6.39,86.53a75.86,75.86,0,0,0,79.14,34.72c34.78-6.83,59.72-38.43,60.06-73.5.06-6.44-9.94-6.44-10,0-.26,26.84-17,51.76-42.45,61a65.8,65.8,0,0,1-72.46-19.33c-17.59-20.78-19.85-51.53-6-74.85s41.58-35.92,68.18-30.68A65.75,65.75,0,0,1,247,165C247.06,171.43,257.06,171.45,257,165Z" transform="translate(-107.15 -90.04)"/><line class="cls-1" x1="25.85" y1="74.96" x2="123.85" y2="74.96"/><line class="cls-1" x1="74.85" y1="123.96" x2="74.85" y2="25.96"/></svg>